<svg xmlns="http://www.w3.org/2000/svg" xmlns:xlink="http://www.w3.org/1999/xlink" width="500" zoomAndPan="magnify" viewBox="0 0 375 374.999991" height="500" preserveAspectRatio="xMidYMid meet" version="1.0"><defs><clipPath id="9458bae192"><path d="M 47.960938 78.292969 L 186.035156 78.292969 L 186.035156 296.542969 L 47.960938 296.542969 Z M 47.960938 78.292969 " clip-rule="nonzero"/></clipPath><clipPath id="6b9dadbb4f"><path d="M 130 237 L 245.710938 237 L 245.710938 296.542969 L 130 296.542969 Z M 130 237 " clip-rule="nonzero"/></clipPath><clipPath id="ce66377424"><path d="M 188.960938 78.292969 L 326.816406 78.292969 L 326.816406 296.542969 L 188.960938 296.542969 Z M 188.960938 78.292969 " clip-rule="nonzero"/></clipPath></defs><rect x="-37.5" width="450" fill="#ffffff" y="-37.499999" height="449.999989" fill-opacity="1"/><rect x="-37.5" width="450" fill="#001e2a" y="-37.499999" height="449.999989" fill-opacity="1"/><g clip-path="url(#9458bae192)"><path fill="#b2efc8" d="M 124.898438 296.289062 L 124.488281 296.695312 L 47.960938 296.695312 L 102.082031 211.101562 L 169.714844 251.472656 Z M 125.191406 174.59375 L 185.859375 235.265625 L 171.820312 249.308594 L 103.601562 208.644531 Z M 186.035156 78.292969 L 186.035156 231.285156 L 126.769531 172.019531 Z M 186.035156 78.292969 " fill-opacity="1" fill-rule="nonzero"/></g><g clip-path="url(#6b9dadbb4f)"><path fill="#b2efc8" d="M 130.398438 296.695312 L 187.96875 262.355469 L 245.535156 296.695312 Z M 185.101562 260.65625 L 134.433594 290.902344 L 172.289062 253.050781 L 172.988281 253.460938 Z M 187.96875 237.371094 L 201.480469 250.886719 L 187.96875 258.960938 L 174.453125 250.886719 Z M 235.882812 285.289062 L 241.5 290.902344 L 190.832031 260.65625 L 202.242188 253.871094 L 203.648438 253.050781 L 235.882812 285.289062 " fill-opacity="1" fill-rule="nonzero"/></g><g clip-path="url(#ce66377424)"><path fill="#b2efc8" d="M 251.445312 296.695312 L 206.222656 251.472656 L 273.210938 211.511719 L 327.035156 296.695312 Z M 188.960938 78.292969 L 248.578125 172.605469 L 188.960938 232.222656 Z M 271.632812 209.054688 L 205.578125 248.429688 L 204.113281 249.308594 L 190.074219 235.265625 L 250.160156 175.121094 L 271.632812 209.054688 " fill-opacity="1" fill-rule="nonzero"/></g></svg>