<svg xmlns="http://www.w3.org/2000/svg" xmlns:xlink="http://www.w3.org/1999/xlink" width="500" zoomAndPan="magnify" viewBox="0 0 375 374.999991" height="500" preserveAspectRatio="xMidYMid meet" version="1.0"><defs><g/><clipPath id="cae76a0057"><path d="M 24 24 L 351 24 L 351 351 L 24 351 Z M 24 24 " clip-rule="nonzero"/></clipPath><clipPath id="afd5121e0c"><path d="M 187.5 24 C 97.199219 24 24 97.199219 24 187.5 C 24 277.800781 97.199219 351 187.5 351 C 277.800781 351 351 277.800781 351 187.5 C 351 97.199219 277.800781 24 187.5 24 Z M 187.5 24 " clip-rule="nonzero"/></clipPath><clipPath id="6f6da9dd01"><path d="M 0 0 L 327 0 L 327 327 L 0 327 Z M 0 0 " clip-rule="nonzero"/></clipPath><clipPath id="7eba3929b9"><path d="M 163.5 0 C 73.199219 0 0 73.199219 0 163.5 C 0 253.800781 73.199219 327 163.5 327 C 253.800781 327 327 253.800781 327 163.5 C 327 73.199219 253.800781 0 163.5 0 Z M 163.5 0 " clip-rule="nonzero"/></clipPath><clipPath id="41f49bde9e"><rect x="0" width="327" y="0" height="327"/></clipPath><clipPath id="8cfe1fd3b0"><rect x="0" width="187" y="0" height="323"/></clipPath></defs><g clip-path="url(#cae76a0057)"><g clip-path="url(#afd5121e0c)"><g transform="matrix(1, 0, 0, 1, 24, 24)"><g clip-path="url(#41f49bde9e)"><g clip-path="url(#6f6da9dd01)"><g clip-path="url(#7eba3929b9)"><rect x="-106.5" width="540" fill="#ffffff" height="539.999987" y="-106.499998" fill-opacity="1"/></g></g></g></g></g></g><g transform="matrix(1, 0, 0, 1, 75, 26)"><g clip-path="url(#8cfe1fd3b0)"><g fill="#000000" fill-opacity="1"><g transform="translate(0.220664, 257.657258)"><g><path d="M 182.671875 -18.328125 L 182.671875 -10.9375 C 182.671875 -10.9375 180.3125 -9.539062 175.59375 -6.75 C 170.875 -3.96875 163.90625 -1.1875 154.6875 1.59375 C 145.46875 4.382812 134.109375 5.78125 120.609375 5.78125 C 112.453125 5.78125 103.601562 4.867188 94.0625 3.046875 C 84.53125 1.234375 74.992188 -2.03125 65.453125 -6.75 C 55.910156 -11.46875 47.171875 -17.847656 39.234375 -25.890625 C 31.304688 -33.929688 24.925781 -44.007812 20.09375 -56.125 C 15.269531 -68.238281 12.859375 -82.867188 12.859375 -100.015625 C 12.859375 -118.671875 15.859375 -134.695312 21.859375 -148.09375 C 27.867188 -161.5 36.070312 -172.4375 46.46875 -180.90625 C 56.875 -189.375 68.722656 -195.644531 82.015625 -199.71875 C 95.304688 -203.789062 109.132812 -205.828125 123.5 -205.828125 C 135.71875 -205.828125 146.273438 -204.703125 155.171875 -202.453125 C 164.066406 -200.203125 170.875 -198.003906 175.59375 -195.859375 C 180.3125 -193.710938 182.671875 -192.640625 182.671875 -192.640625 L 182.671875 -185.5625 C 182.671875 -185.5625 180.363281 -186.796875 175.75 -189.265625 C 171.144531 -191.734375 164.445312 -194.195312 155.65625 -196.65625 C 146.863281 -199.125 136.144531 -200.359375 123.5 -200.359375 C 117.28125 -200.359375 110.3125 -199.550781 102.59375 -197.9375 C 94.875 -196.332031 87.15625 -193.382812 79.4375 -189.09375 C 71.71875 -184.8125 64.585938 -178.914062 58.046875 -171.40625 C 51.503906 -163.90625 46.25 -154.3125 42.28125 -142.625 C 38.320312 -130.945312 36.34375 -116.742188 36.34375 -100.015625 C 36.34375 -79.003906 39.128906 -61.851562 44.703125 -48.5625 C 50.273438 -35.269531 57.507812 -25.082031 66.40625 -18 C 75.3125 -10.925781 84.800781 -6.050781 94.875 -3.375 C 104.945312 -0.695312 114.488281 0.640625 123.5 0.640625 C 135.9375 0.640625 146.546875 -0.910156 155.328125 -4.015625 C 164.117188 -7.128906 170.875 -10.289062 175.59375 -13.5 C 180.3125 -16.71875 182.671875 -18.328125 182.671875 -18.328125 Z M 182.671875 -18.328125 "/></g></g></g></g></g></svg>